<?xml version="1.0" encoding="iso-8859-1"?>
<!-- Generator: Adobe Illustrator 19.0.0, SVG Export Plug-In . SVG Version: 6.00 Build 0)  -->
<svg xmlns="http://www.w3.org/2000/svg" xmlns:xlink="http://www.w3.org/1999/xlink" version="1.1" id="Capa_1" x="0px" y="0px" viewBox="0 0 512 512" style="enable-background:new 0 0 512 512;" xml:space="preserve" width="512px" height="512px">
<g>
	<g>
		<path d="M508.875,18.208c4.167-4.167,4.167-10.917,0-15.083c-4.167-4.167-10.917-4.167-15.083,0l-35.544,35.544    C430.753,14.665,394.908,0,355.625,0h-199.25C117.092,0,81.247,14.665,53.753,38.669L18.208,3.125    c-4.167-4.167-10.917-4.167-15.083,0s-4.167,10.917,0,15.083l35.544,35.544C14.665,81.247,0,117.092,0,156.375v199.25    c0,39.283,14.665,75.128,38.669,102.622L3.125,493.792c-4.167,4.167-4.167,10.917,0,15.083C5.208,510.958,7.938,512,10.667,512    c2.729,0,5.458-1.042,7.542-3.125l35.544-35.544C81.247,497.335,117.092,512,156.375,512h199.25    c39.283,0,75.128-14.665,102.622-38.669l35.544,35.544c2.083,2.083,4.813,3.125,7.542,3.125c2.729,0,5.458-1.042,7.542-3.125    c4.167-4.167,4.167-10.917,0-15.083l-35.544-35.544C497.335,430.753,512,394.908,512,355.625v-199.25    c0-39.283-14.665-75.128-38.669-102.622L508.875,18.208z M42.667,428.177c-13.436-20.983-21.333-45.841-21.333-72.552v-199.25    c0-26.711,7.897-51.569,21.333-72.552V428.177z M203.949,188.866c14.451-11.233,32.368-18.199,52.051-18.199    s37.6,6.966,52.051,18.199L256,240.917L203.949,188.866z M308.051,323.134C293.6,334.367,275.682,341.333,256,341.333    s-37.6-6.966-52.051-18.199L256,271.083L308.051,323.134z M240.917,256l-52.049,52.049c-11.234-14.452-18.201-32.37-18.201-52.049    s6.966-37.598,18.201-52.049L240.917,256z M188.875,338.208c18.392,15.048,41.565,24.458,67.125,24.458s48.733-9.41,67.125-24.458    l60.676,60.676C349.815,429.315,305.104,448,256,448s-93.815-18.685-127.801-49.116L188.875,338.208z M271.083,256l52.049-52.049    c11.234,14.452,18.201,32.37,18.201,52.049s-6.966,37.598-18.201,52.049L271.083,256z M323.125,173.792    c-18.392-15.048-41.565-24.458-67.125-24.458s-48.733,9.41-67.125,24.458l-60.676-60.676C162.185,82.685,206.896,64,256,64    s93.815,18.685,127.801,49.116L323.125,173.792z M348.374,64h84.543l-34.039,34.039C383.82,84.406,366.854,72.93,348.374,64z     M156.375,21.333h199.25c26.711,0,51.569,7.897,72.552,21.333H83.823C104.806,29.23,129.664,21.333,156.375,21.333z M163.628,64    c-18.48,8.93-35.448,20.406-50.505,34.039L79.083,64H163.628z M64,79.083l34.04,34.04C84.408,128.181,72.93,145.146,64,163.628    V79.083z M113.116,128.199l60.676,60.676c-15.048,18.392-24.458,41.565-24.458,67.125s9.41,48.733,24.458,67.125l-60.676,60.676    C82.685,349.814,64,305.102,64,256S82.685,162.186,113.116,128.199z M64,348.372c8.93,18.482,20.408,35.447,34.04,50.504    L64,432.917V348.372z M113.122,413.961c15.057,13.633,32.025,25.109,50.505,34.039H79.083L113.122,413.961z M355.625,490.667    h-199.25c-26.711,0-51.569-7.897-72.552-21.333h344.354C407.194,482.77,382.336,490.667,355.625,490.667z M348.374,448    c18.48-8.93,35.447-20.406,50.504-34.039L432.917,448H348.374z M448,432.917l-34.04-34.04    c13.633-15.056,25.111-32.022,34.04-50.503V432.917z M398.884,383.801l-60.676-60.676c15.048-18.392,24.458-41.565,24.458-67.125    s-9.41-48.733-24.458-67.125l60.676-60.676C429.315,162.186,448,206.898,448,256S429.315,349.814,398.884,383.801z M448,163.626    c-8.93-18.48-20.408-35.447-34.04-50.503L448,79.083V163.626z M490.667,156.375v199.25c0,26.711-7.897,51.569-21.333,72.552    V83.823C482.77,104.806,490.667,129.664,490.667,156.375z" fill="#757575"/>
	</g>
</g>
<g>
</g>
<g>
</g>
<g>
</g>
<g>
</g>
<g>
</g>
<g>
</g>
<g>
</g>
<g>
</g>
<g>
</g>
<g>
</g>
<g>
</g>
<g>
</g>
<g>
</g>
<g>
</g>
<g>
</g>
</svg>
